<?xml version="1.0" encoding="UTF-8" standalone="no"?>
<!-- Created with Inkscape (http://www.inkscape.org/) -->

<svg
   xmlns:dc="http://purl.org/dc/elements/1.1/"
   xmlns:cc="http://creativecommons.org/ns#"
   xmlns:rdf="http://www.w3.org/1999/02/22-rdf-syntax-ns#"
   xmlns:svg="http://www.w3.org/2000/svg"
   xmlns="http://www.w3.org/2000/svg"
   xmlns:sodipodi="http://sodipodi.sourceforge.net/DTD/sodipodi-0.dtd"
   xmlns:inkscape="http://www.inkscape.org/namespaces/inkscape"
   width="200mm"
   height="200mm"
   viewBox="0 0 200.00001 200.00001"
   version="1.1"
   id="svg8"
   inkscape:version="0.92.3 (2405546, 2018-03-11)"
   sodipodi:docname="pikachu2.svg">
  <defs
     id="defs2" />
  <sodipodi:namedview
     id="base"
     pagecolor="#ffffff"
     bordercolor="#666666"
     borderopacity="1.0"
     inkscape:pageopacity="0.0"
     inkscape:pageshadow="2"
     inkscape:zoom="0.49497475"
     inkscape:cx="317.56556"
     inkscape:cy="285.99713"
     inkscape:document-units="mm"
     inkscape:current-layer="layer1"
     showgrid="false"
     inkscape:window-width="1680"
     inkscape:window-height="997"
     inkscape:window-x="-8"
     inkscape:window-y="-8"
     inkscape:window-maximized="1"
     units="mm" />
  <metadata
     id="metadata5">
    <rdf:RDF>
      <cc:Work
         rdf:about="">
        <dc:format>image/svg+xml</dc:format>
        <dc:type
           rdf:resource="http://purl.org/dc/dcmitype/StillImage" />
        <dc:title></dc:title>
      </cc:Work>
    </rdf:RDF>
  </metadata>
  <g
     inkscape:label="Layer 1"
     inkscape:groupmode="layer"
     id="layer1"
     transform="translate(0,-96.999973)">
    <path
       style="fill:#00ff00;fill-opacity:1;stroke-width:0.38823554"
       d="m 130.66238,293.77345 c -0.53382,-0.21586 -1.63104,-0.84788 -2.43826,-1.4045 -1.5987,-1.10237 -7.7728,-8.28348 -10.60368,-12.33308 -0.9944,-1.4225 -2.14118,-2.61936 -2.61468,-2.72885 -0.46387,-0.1073 -2.59046,-0.45506 -4.72573,-0.77296 -2.13531,-0.3179 -6.32827,-0.94799 -9.31767,-1.40025 -5.963403,-0.90216 -8.805974,-0.84852 -14.990063,0.28286 -3.317817,0.60701 -3.771943,0.80089 -5.381477,2.29766 -5.708378,5.30834 -17.033777,10.65863 -22.561976,10.65863 -2.443588,0 -2.681069,-0.0785 -3.620238,-1.19451 -0.552806,-0.65695 -1.005098,-1.45181 -1.005098,-1.76632 0,-1.4676 3.517358,-6.79678 6.699306,-10.15013 l 2.310041,-2.4345 -1.049051,-1.37536 c -2.34695,-3.077 -3.731305,-5.52021 -4.916976,-8.6777 -1.149938,-3.06235 -1.246602,-3.67773 -1.223571,-7.78975 0.03491,-6.23393 0.701337,-11.22174 2.463917,-18.44118 1.447179,-5.92756 1.721029,-7.49998 2.704545,-15.52942 0.235394,-1.92176 0.787208,-5.04062 1.226246,-6.9308 0.539446,-2.32244 0.684168,-3.69237 0.446371,-4.2253 -0.19354,-0.43373 -2.003016,-2.2151 -4.021065,-3.95865 -4.486272,-3.87598 -8.184129,-8.39998 -9.3083,-11.38786 -0.714493,-1.89903 -0.814884,-2.82689 -0.681984,-6.30331 0.143703,-3.75904 0.283161,-4.3712 1.790988,-7.86169 0.962633,-2.22841 1.957559,-5.42195 2.41905,-7.76471 0.935898,-4.75105 1.655842,-7.08219 3.138741,-10.16299 0.609195,-1.26565 1.107624,-2.33352 1.107624,-2.37308 0,-0.0396 -1.528675,-0.19522 -3.39706,-0.34589 -8.718335,-0.70312 -20.270565,-3.29349 -26.472155,-5.93589 -8.865912,-3.77763 -14.091334,-6.94359 -16.7160555,-10.12782 -1.39336,-1.69039 -1.472449,-2.58366 -0.29417,-3.32249 1.9590695,-1.22837 11.5706695,-1.95293 18.7674465,-1.41472 12.963279,0.96943 14.481889,1.28297 38.652364,7.98025 2.10383,0.58294 2.86621,0.433 8.094943,-1.59206 5.602241,-2.16973 9.948905,-2.90827 17.470585,-2.96841 6.757161,-0.054 9.087522,0.24747 14.822952,1.91779 1.85349,0.53979 3.60244,0.89223 3.88654,0.78321 0.28412,-0.10902 1.94016,-2.53461 3.68008,-5.39016 3.03055,-4.97375 4.22542,-6.67577 9.80539,-13.96712 6.27032,-8.1935 19.33926,-19.1942 27.90877,-23.49205 4.30197,-2.15756 6.40051,-2.451587 6.61562,-0.92692 0.46551,3.29927 -3.94581,15.81328 -8.03514,22.79412 -3.35911,5.73422 -13.18401,19.21692 -16.94122,23.24835 -2.76089,2.9624 -9.35709,10.41997 -9.45904,10.69428 -0.0737,0.19788 0.21479,1.10121 0.64075,2.0074 0.88483,1.88241 2.22662,5.85556 2.84166,8.41447 l 0.41843,1.7409 12.09292,-12.34143 12.09292,-12.34144 5.43531,3.44693 c 2.9894,1.89579 6.96396,4.43954 8.83235,5.65278 1.86839,1.21327 3.39705,2.12585 3.39705,2.02804 0,-0.0978 0.46229,0.25054 1.02729,0.77418 0.56501,0.52362 1.17447,0.95205 1.35438,0.95205 0.1799,0 0.63486,0.25275 1.01096,0.56166 0.37612,0.30892 2.34356,1.73914 4.37209,3.17828 5.94615,4.21849 10.48235,7.97592 10.48235,8.68273 0,0.85528 -0.5321,1.29836 -5.6294,4.6876 -2.34883,1.56172 -5.49353,3.74178 -6.98824,4.84459 -4.1774,3.08204 -16.30589,13.34305 -16.30589,13.79518 0,0.22089 1.13559,0.88443 2.52353,1.47454 4.09871,1.74262 15.93689,7.46084 18.25184,8.81621 2.49987,1.46363 3.78668,2.74067 3.26665,3.24185 -0.58459,0.56338 -6.21187,4.02617 -11.42438,7.03006 -2.66911,1.53818 -6.5668,3.84636 -8.66151,5.12931 l -3.80862,2.33264 5.74978,3.16702 c 6.10026,3.36009 11.37917,6.7265 11.37917,7.25659 0,0.17578 -2.14012,1.57581 -4.75586,3.11122 -5.18003,3.04056 -8.98772,5.4852 -22.70873,14.57959 -7.32938,4.85798 -9.06698,6.17797 -9.25553,7.03117 -1.38975,6.28871 -2.52149,8.97554 -5.38531,12.78527 l -1.80842,2.40572 1.00112,3.16917 c 2.17168,6.87454 2.69145,15.22319 1.08251,17.38697 -0.84436,1.13551 -3.01495,1.49683 -4.75803,0.79203 z m 2.94295,-2.33579 c -0.14464,-1.09029 -0.68175,-3.09497 -1.19362,-4.45483 -0.51183,-1.35987 -0.78523,-2.56236 -0.6075,-2.67221 0.58443,-0.36119 1.24614,0.8831 1.97356,3.71111 1.03628,4.02868 1.54343,4.25009 1.54343,0.67384 0,-5.62036 -1.96087,-13.52263 -3.35554,-13.52263 -0.29821,0 -1.58541,0.4239 -2.86039,0.94196 -2.35299,0.95611 -4.91225,1.57178 -8.24584,1.98365 -1.01428,0.12532 -1.84411,0.31318 -1.84411,0.41748 0,1.28775 4.30761,7.04933 7.83762,10.48308 3.6819,3.58151 4.62673,3.96004 3.01088,1.20622 -0.65399,-1.11456 -1.47199,-2.5921 -1.81777,-3.28339 -0.61738,-1.23419 -0.51314,-1.95523 0.21735,-1.50373 0.42678,0.26375 3.95192,6.39063 3.95192,6.86861 0,0.27624 1.09012,1.08802 1.50591,1.1214 0.0809,0.007 0.0288,-0.88025 -0.1159,-1.97056 z m -70.029505,-5.35494 c 5.622028,-1.90035 14.442903,-6.87094 14.949232,-8.42387 0.09125,-0.27987 -1.193314,-0.50706 -3.74622,-0.66258 -2.754969,-0.16786 -4.706662,-0.53413 -6.709603,-1.25927 -4.327211,-1.56658 -4.366909,-1.56789 -6.091495,-0.20197 -2.50087,1.98071 -7.453878,8.65239 -6.86251,9.24377 0.136043,0.13605 1.079179,-0.57197 2.095856,-1.57336 1.016681,-1.00139 1.973536,-1.82072 2.126351,-1.82072 0.657387,0 0.153127,0.79027 -1.663338,2.60673 -1.829646,1.82965 -2.390354,2.82857 -1.587713,2.82857 0.19441,0 1.760735,-1.14962 3.480726,-2.55473 2.758488,-2.25348 3.930521,-2.77505 3.930521,-1.74921 0,0.16999 -1.019207,1.024 -2.264896,1.89781 -1.245693,0.87382 -2.490027,1.86001 -2.765186,2.19156 -0.815423,0.98252 1.293668,0.7667 5.108275,-0.52273 z M 125.634,274.85285 c 6.9136,-2.4036 10.84061,-6.81185 12.61658,-14.16256 0.70156,-2.90379 1.16521,-9.6938 0.7962,-11.66065 l -0.26665,-1.42142 h -3.11381 c -5.56215,0 -5.93309,-1.05518 -1.70218,-4.84182 1.60245,-1.43418 3.01299,-3.00399 3.1346,-3.48844 0.20931,-0.83389 -0.84297,-4.89754 -2.62856,-10.15117 l -0.80541,-2.36968 -3.54886,0.18564 c -2.91479,0.15246 -3.6396,0.0764 -4.0568,-0.42642 -0.79663,-0.95989 -0.16409,-2.18226 2.41527,-4.66762 l 2.3572,-2.27126 -1.08281,-2.96991 c -3.76238,-10.31952 -3.84782,-10.62335 -3.83251,-13.63301 0.009,-1.60884 0.38047,-6.06987 0.82731,-9.9134 1.17461,-10.10337 1.12332,-19.29263 -0.13592,-24.35164 -0.83303,-3.34666 -2.76625,-8.45426 -3.19992,-8.45426 -0.0882,0 -0.66592,0.2614 -1.28379,0.58092 -2.89801,1.49863 -0.89656,-1.20185 8.34345,-11.2574 7.61494,-8.28707 11.74968,-13.94081 12.91876,-17.66471 0.53911,-1.71726 0.66505,-3.54147 0.64326,-9.31767 -0.0291,-7.73827 -0.37418,-10.20535 -1.45627,-10.41374 -0.89144,-0.17168 -8.70134,6.38937 -12.07577,10.14479 -4.02515,4.47962 -10.86195,13.88953 -15.33624,21.10818 -2.22655,3.59226 -4.38712,6.8808 -4.80123,7.30785 -0.74739,0.77081 -0.75108,0.76192 -0.50606,-1.21666 l 0.24683,-1.99312 -1.61623,-0.64669 c -5.70782,-2.28381 -13.938741,-3.0251 -22.503484,-2.02667 -6.080862,0.70888 -10.377028,1.94329 -15.206841,4.36939 -3.907561,1.96282 -4.512712,2.09373 -3.659498,0.79154 l 0.600406,-0.91635 -3.758694,-1.20228 c -4.846005,-1.55009 -17.199457,-4.49141 -23.170477,-5.51683 -2.562354,-0.44004 -6.732188,-0.90743 -9.266298,-1.03865 l -4.60747,-0.23858 0.270627,0.93509 c 0.148844,0.51431 0.364759,1.28451 0.479809,1.71157 0.278553,1.03395 4.282233,8.22442 5.424004,9.74131 0.496835,0.66007 1.47155,1.48993 2.166036,1.84414 2.169035,1.10629 13.362101,3.00298 18.232716,3.08958 3.992821,0.071 4.491941,1.7e-4 5.60758,-0.7956 1.11713,-0.79685 2.463597,-1.16518 2.463597,-0.67393 0,0.10978 -0.785955,1.16454 -1.74657,2.34392 -3.006117,3.6907 -4.347574,6.96185 -5.802968,14.1506 -0.497144,2.45559 -1.360407,5.45808 -1.918362,6.67219 -0.557953,1.21411 -1.014458,2.27759 -1.014458,2.36329 0,0.0855 0.682167,0.8729 1.515934,1.74937 2.857504,3.00386 3.145632,8.30864 0.636034,11.71021 -0.935542,1.26805 -0.943709,1.33538 -0.295294,2.43429 1.316249,2.23071 5.668503,6.58655 10.982215,10.99128 2.974505,2.46565 5.408181,4.55994 5.408181,4.65395 0,0.30228 -2.008555,-0.58141 -3.119464,-1.37246 -2.070167,-1.47409 -2.442087,-0.97043 -3.447425,4.66852 -1.75013,9.8164 -1.579915,17.71392 0.577357,26.78824 0.786832,3.3097 1.451809,6.97853 1.477718,8.15295 0.04863,2.20227 0.270635,2.41565 1.840204,1.76823 0.435108,-0.17949 0.692605,-0.0137 0.83718,0.53921 0.274611,1.05009 1.249443,1.0165 2.009944,-0.0692 0.520645,-0.74333 0.71785,-0.799 1.375571,-0.38824 1.069872,0.66815 1.963888,0.59815 2.553514,-0.19991 0.402165,-0.54435 0.599767,-0.58294 0.993974,-0.19413 0.913921,0.90143 1.892326,0.56906 2.152366,-0.73114 0.144377,-0.72186 0.53506,-1.29276 0.960883,-1.40411 0.849281,-0.2221 0.882268,-0.79967 0.19403,-3.39711 -0.360706,-1.36133 -0.417585,-2.63698 -0.19047,-4.27058 0.6046,-4.3484 0.794492,-11.63375 0.394678,-15.1412 -0.219058,-1.92177 -0.250047,-3.64686 -0.06883,-3.83356 0.504995,-0.52034 1.553461,3.39953 2.023894,7.56671 0.357517,3.16704 0.313124,4.43285 -0.292828,8.34706 -0.834407,5.38997 -0.854908,6.73215 -0.137789,9.02101 0.503277,1.60629 0.486101,1.72443 -0.3491,2.40073 -0.483143,0.39121 -1.059575,1.23095 -1.280991,1.86608 -0.472628,1.3558 -1.36126,1.67079 -5.107871,1.81059 -1.441618,0.0538 -2.888124,0.31939 -3.214448,0.59021 -0.457835,0.37997 -0.816493,0.39073 -1.570673,0.047 -0.537548,-0.24492 -1.570296,-0.44531 -2.295,-0.44531 -0.724711,0 -1.437034,-0.19317 -1.582943,-0.42926 -0.145908,-0.2361 -0.584794,-2.20154 -0.97531,-4.36764 -1.397405,-7.75131 -2.949653,-14.64168 -3.300851,-14.65236 -0.464005,-0.0142 -1.944576,6.29408 -2.469069,10.51983 -0.581188,4.68254 -0.499348,10.64452 0.186019,13.55212 1.606281,6.81441 6.047374,11.55437 12.941045,13.81185 2.522029,0.82587 6.868153,0.6977 18.187939,-0.53642 8.20163,-0.89417 6.97625,-0.95811 21.849721,1.13962 6.35126,0.89576 11.97881,0.77166 15.15986,-0.33429 z M 100.84731,257.4811 c -0.56996,-0.39921 -1.261621,-0.52774 -1.985121,-0.36881 -0.90854,0.19955 -1.2643,0.0482 -1.9569,-0.83226 -0.46556,-0.59187 -1.3619,-1.29286 -1.991838,-1.55774 -1.554193,-0.65349 -1.733956,-1.35712 -1.006628,-3.94016 0.341229,-1.2118 0.72378,-3.86301 0.850156,-5.89156 0.55289,-8.87605 3.5999,-20.96472 5.284211,-20.96472 0.23204,0 0.31183,0.2868 0.17732,0.63731 -1.717071,4.47464 -3.227101,12.25322 -3.721381,19.16986 -0.20857,2.9185 -0.64808,6.0685 -0.97673,6.99997 -0.688664,1.95192 -0.495986,2.87003 0.5452,2.59773 0.5306,-0.13875 0.8896,0.15974 1.34784,1.12066 0.68579,1.43811 1.55165,1.65658 2.644831,0.66727 0.39048,-0.35339 0.70997,-0.45322 0.70997,-0.22184 0,0.51649 1.08572,1.64083 1.58448,1.64083 0.20037,0 0.65958,-0.34486 1.02049,-0.76638 0.60621,-0.70801 0.70887,-0.71872 1.34775,-0.14054 0.59408,0.53763 0.7834,0.54991 1.34321,0.0869 0.35842,-0.29637 1.10419,-0.53886 1.65728,-0.53886 0.80262,0 1.01411,-0.19596 1.0477,-0.97058 0.0233,-0.53384 0.067,-1.25392 0.097,-1.60019 0.0303,-0.3463 0.9561,-2.00599 2.05751,-3.68826 1.10139,-1.68223 2.56706,-4.29248 3.25702,-5.80053 1.52486,-3.33286 3.81854,-10.354 4.46285,-13.66106 0.51837,-2.66073 1.14818,-3.22861 1.14818,-1.03525 0,2.38414 -2.91806,12.99403 -4.36896,15.88528 -0.42864,0.85411 -1.80479,3.14123 -3.05812,5.08249 -2.14759,3.32636 -2.85923,5.32762 -1.81657,5.10869 0.86714,-0.18207 0.74431,1.16983 -0.20672,2.27546 -0.88524,1.02915 -1.01677,1.06683 -1.96103,0.56148 -0.7686,-0.41135 -1.2223,-0.43947 -1.88565,-0.11693 -1.62534,0.79032 -4.68994,0.93231 -5.64742,0.26169 z m 7.68564,-61.51557 c -2.0272,-0.26385 -3.7332,-1.09299 -4.90148,-2.38222 -1.3538,-1.49392 -1.69897,-2.48745 -1.69,-4.86432 0.0155,-4.10247 2.05654,-6.89213 5.76462,-7.87902 4.75084,-1.26439 9.77053,2.67193 9.74776,7.64392 -0.0227,4.94867 -3.83259,8.14388 -8.9209,7.48164 z m 3.85695,-1.3386 c 2.78887,-1.4132 3.51952,-2.53642 3.51952,-5.41039 0,-1.89147 -0.19689,-2.67081 -0.95762,-3.79032 -2.70151,-3.97561 -8.36102,-4.38007 -10.82825,-0.77382 -1.84814,2.70131 -1.68058,6.13913 0.42094,8.63667 2.03748,2.42137 4.78323,2.8896 7.84541,1.33786 z m -34.548336,-3.59666 c -1.482439,-0.38973 -3.074581,-0.48214 -5.326347,-0.3092 -3.185096,0.24466 -3.221456,0.2371 -4.367648,-0.9091 -1.785774,-1.78579 -1.489851,-2.69158 0.397129,-1.21554 1.0653,0.83328 2.618873,0.97326 4.57502,0.41225 0.897254,-0.25732 1.898938,-0.20036 3.413451,0.19413 3.297131,0.85878 5.332041,0.73347 6.693668,-0.41227 1.798894,-1.51367 2.615269,-1.2282 1.409724,0.49296 -1.307322,1.86647 -3.851618,2.52051 -6.794997,1.74677 z m -5.209275,-8.39535 c -1.174259,-0.85865 -0.486678,-1.80322 1.3126,-1.80322 1.897989,0 2.396949,0.66163 1.218571,1.61583 -1.051096,0.85113 -1.570828,0.8896 -2.531171,0.18739 z m 24.64184,-3.03267 c -1.73972,-0.49031 -3.742693,-2.41215 -4.312074,-4.13739 -0.61987,-1.87825 -0.211366,-5.58533 0.79489,-7.21348 1.679374,-2.71729 6.215534,-3.76696 9.355745,-2.16494 3.14943,1.60671 4.66381,5.94765 3.31084,9.49039 -1.35972,3.56036 -5.04558,5.18202 -9.149401,4.02542 z m 2.39589,-6.01306 c 0.464111,-0.42004 0.709991,-1.18443 0.709991,-2.20735 0,-3.02543 -2.846331,-4.43321 -4.870601,-2.40896 -1.497107,1.49712 -1.160444,4.28653 0.6,4.97108 1.14919,0.44686 2.86355,0.27604 3.56061,-0.35477 z m -39.266618,5.60208 c -3.627248,-1.9146 -3.648532,-8.63388 -0.037,-11.67281 1.648206,-1.38687 2.732415,-1.61674 4.379464,-0.92856 3.859632,1.61267 4.170932,9.66474 0.467455,12.09136 -1.379385,0.90381 -3.614816,1.14083 -4.809941,0.51001 z m 4.014293,-5.18801 c 0.94437,-0.36241 1.551786,-2.65952 0.986835,-3.73194 -0.864745,-1.6415 -1.559478,-1.82233 -2.68337,-0.69844 -0.504027,0.50402 -0.77647,1.29411 -0.77647,2.25176 0,2.04461 0.856325,2.79898 2.473005,2.17862 z m -9.852706,-17.25237 c -0.414177,-0.26184 -0.09074,-0.36784 1.13558,-0.37208 1.844193,-0.007 1.962274,0.13666 0.41736,0.50565 -0.535596,0.12792 -1.23442,0.0678 -1.55294,-0.13357 z m 98.226272,75.56753 c -6.1e-4,-0.47529 -1.56141,-1.1708 -10.28311,-4.58218 -3.20041,-1.25178 -6.03547,-2.49252 -6.30017,-2.75721 -0.26466,-0.26467 -0.58103,-1.00299 -0.70303,-1.64072 -0.20334,-1.0629 0.26433,-1.69323 5.61292,-7.5654 3.2091,-3.52323 5.83824,-6.53117 5.84256,-6.68428 0.0115,-0.40774 -18.92568,-6.37793 -19.20099,-6.05342 -0.19099,0.22512 3.1889,11.75837 4.24481,14.48477 2.44807,6.32097 5.69258,16.07646 6.62775,19.92808 0.5532,2.27839 1.17934,4.80671 1.39142,5.61852 l 0.38562,1.47599 6.19138,-5.8952 c 3.40526,-3.24237 6.19114,-6.0904 6.19084,-6.32895 z M 52.65268,195.09943 c 0.945361,-1.30506 1.136167,-1.94216 1.122022,-3.74656 -0.02759,-3.5194 -1.498966,-6.6388 -3.13142,-6.6388 -0.96568,0 -1.267425,1.91729 -1.02926,6.53985 0.190107,3.68974 0.841718,6.07174 1.542488,5.63863 0.196408,-0.12137 0.869686,-0.92828 1.49617,-1.79312 z"
       id="path837"
       inkscape:connector-curvature="0"
       sodipodi:nodetypes="ccscsccsscssccsssssccsccccscsscsssscsccssscccccccscscscsssssscccccsscscsccccccccsscsscsccscccccccccscscssccccccsccscscscscscscsccssccscsssccccscccscccscscscccsscsccccccccccsssccsccccccscsccscscccccccccscsccccsscccscccscscscccscccccscccscccccccscccscsssscscccccscsccccsccccsscccsccsccsccccccscccsscc" />
  </g>
</svg>
