<?xml version="1.0" encoding="UTF-8" standalone="no"?>
<!-- Created with Inkscape (http://www.inkscape.org/) -->

<svg
   xmlns:dc="http://purl.org/dc/elements/1.1/"
   xmlns:cc="http://creativecommons.org/ns#"
   xmlns:rdf="http://www.w3.org/1999/02/22-rdf-syntax-ns#"
   xmlns:svg="http://www.w3.org/2000/svg"
   xmlns="http://www.w3.org/2000/svg"
   xmlns:sodipodi="http://sodipodi.sourceforge.net/DTD/sodipodi-0.dtd"
   xmlns:inkscape="http://www.inkscape.org/namespaces/inkscape"
   width="200mm"
   height="200mm"
   viewBox="0 0 200 200"
   version="1.1"
   id="svg8"
   inkscape:version="0.92.3 (2405546, 2018-03-11)"
   sodipodi:docname="vaultboy.svg">
  <defs
     id="defs2" />
  <sodipodi:namedview
     id="base"
     pagecolor="#ffffff"
     bordercolor="#666666"
     borderopacity="1.0"
     inkscape:pageopacity="0.0"
     inkscape:pageshadow="2"
     inkscape:zoom="0.7"
     inkscape:cx="258.96887"
     inkscape:cy="527.66627"
     inkscape:document-units="mm"
     inkscape:current-layer="layer1"
     showgrid="false"
     inkscape:window-width="1680"
     inkscape:window-height="997"
     inkscape:window-x="-8"
     inkscape:window-y="-8"
     inkscape:window-maximized="1" />
  <metadata
     id="metadata5">
    <rdf:RDF>
      <cc:Work
         rdf:about="">
        <dc:format>image/svg+xml</dc:format>
        <dc:type
           rdf:resource="http://purl.org/dc/dcmitype/StillImage" />
        <dc:title></dc:title>
      </cc:Work>
    </rdf:RDF>
  </metadata>
  <g
     inkscape:label="Layer 1"
     inkscape:groupmode="layer"
     id="layer1"
     transform="translate(0,-97)">
    <path
       style="fill:#00ff00;stroke-width:0.22293751;stroke:#00ff00;stroke-opacity:1;fill-opacity:1"
       d="m 77.828184,266.82217 c 0.364884,-7.29175 0.964496,-14.3393 1.734623,-20.38793 0.167353,-1.3144 0.194682,-2.1845 0.06861,-2.1845 -0.115238,0 -1.87515,0.35906 -3.91092,0.79789 -5.353414,1.15401 -12.069598,2.24472 -16.283406,2.64444 -12.073872,1.14531 -27.173572,-0.51284 -35.906899,-3.94304 -0.856405,-0.33637 -2.16089,-0.62819 -3.189401,-0.71347 -7.494158,-0.62143 -14.0575853,-4.69354 -16.7281655,-10.37857 -0.5965049,-1.26981 -0.6821711,-1.69732 -0.6924365,-3.45553 -0.012631,-2.16269 0.2856375,-3.02832 1.568941,-4.55344 l 0.5987488,-0.71158 -1.1828077,-1.15742 c -0.6505441,-0.63659 -1.4418754,-1.70921 -1.7585146,-2.38359 -0.5047772,-1.07509 -0.5756279,-1.51456 -0.5750591,-3.567 7.137e-4,-2.59444 0.3328794,-3.65155 1.6702988,-5.3158 l 0.6977718,-0.86828 -0.8924466,-1.38079 c -1.2915475,-1.99827 -1.6783541,-3.32147 -1.6662316,-5.69992 0.0089,-1.74536 0.097157,-2.19498 0.6783398,-3.45552 0.4397243,-0.95373 1.0626834,-1.81565 1.8223507,-2.5214 2.0139653,-1.87099 3.3693421,-2.20675 9.0585817,-2.24402 l 4.235311,-0.0277 0.436063,-0.81348 0.436064,-0.81347 -0.928664,-2.75353 c -1.196431,-3.54748 -1.708037,-6.45553 -1.523773,-8.66139 0.585372,-7.00749 4.500201,-12.23357 10.266982,-13.70583 1.756912,-0.44854 5.089931,-0.44196 6.424242,0.0127 1.237858,0.42178 2.485276,1.7135 2.820481,2.92064 0.69513,2.50331 0.0822,5.28324 -2.571751,11.66427 -1.010745,2.43017 -1.065716,2.66834 -1.054816,4.57021 0.0095,1.6615 0.122411,2.29389 0.656649,3.67847 0.558677,1.44792 0.899152,1.92657 2.540121,3.57099 1.042233,1.04442 2.715747,2.62505 3.718921,3.51253 2.095738,1.85401 3.95986,4.45295 4.195858,5.84981 0.135361,0.80119 0.30758,1.01996 1.303888,1.65634 4.820542,3.07907 16.158363,7.05701 23.849846,8.36785 4.491616,0.7655 16.400113,1.10283 26.486888,0.75031 l 4.155435,-0.14523 -1.312988,-1.65226 c -4.589844,-5.77583 -7.048647,-13.32865 -7.460939,-22.91814 -0.37515,-8.72555 1.341535,-17.19315 4.983515,-24.58137 l 1.239833,-2.51515 -0.696745,-1.72066 c -1.139227,-2.81344 -1.4763,-4.24643 -1.479763,-6.29089 -0.0042,-2.43631 0.646694,-4.58603 1.99893,-6.60255 l 1.008396,-1.50379 -0.353739,-1.01865 c -0.50352,-1.45001 -0.673624,-4.59808 -0.3403,-6.29816 0.782361,-3.99033 3.795105,-7.31277 8.412263,-9.277 1.14687,-0.4879 2.18216,-0.65021 2.03942,-0.31974 -0.0409,0.0946 -0.49017,0.92228 -0.99843,1.83924 -1.57814,2.84707 -1.5063,3.99066 0.31784,5.05968 0.78329,0.45904 1.30455,0.59018 2.36601,0.59527 1.93276,0.009 2.92155,-0.58696 5.83062,-3.51579 2.55394,-2.57129 4.27098,-3.73287 5.98934,-4.05178 0.47973,-0.089 2.73697,-0.17274 5.01609,-0.186 4.9376,-0.0287 4.70842,0.057 7.67686,-2.87231 1.14616,-1.13105 2.67217,-2.40758 3.39113,-2.83673 1.16818,-0.6973 1.47408,-0.77953 2.87644,-0.77321 2.30535,0.0104 3.44106,0.67471 6.50844,3.80707 1.36779,1.39677 2.55006,2.53958 2.62728,2.53958 0.32765,0 5.68328,1.61488 6.72959,2.02916 1.8248,0.72253 2.73255,1.94893 4.52111,6.10805 1.45426,3.38174 2.1019,4.32642 3.66814,5.3505 1.8341,1.19925 3.5799,3.51715 5.37315,7.13401 2.04548,4.12555 3.18021,7.65965 3.36434,10.47806 0.2708,4.1451 -0.6366,10.3707 -2.19441,15.05563 -1.52678,4.59165 -3.9817,9.90924 -5.91628,12.81518 l -1.04132,1.5642 0.60206,1.11105 c 0.33113,0.61109 0.7203,1.77088 0.86483,2.57731 1.02036,5.69367 -4.55721,12.67962 -9.91718,12.42136 l -1.35896,-0.0655 -0.97272,1.11468 c -0.53499,0.61308 -2.11506,2.27515 -3.51126,3.69349 -1.39621,1.41834 -2.53855,2.64384 -2.53855,2.72333 0,0.0795 1.37943,0.84469 3.06539,1.70045 13.14276,6.67096 26.0468,16.9067 33.89215,26.88392 5.33523,6.78502 10.95475,15.60098 15.09148,23.67569 l 1.46206,2.85388 -1.92608,0.0648 c -1.05934,0.0356 -1.96468,0.0262 -2.01185,-0.021 -0.0472,-0.0472 0.0707,-0.5278 0.2619,-1.06804 l 0.34769,-0.98226 -0.93212,-1.7835 c -3.32365,-6.35935 -10.03112,-16.07454 -15.46881,-22.40523 -6.06718,-7.06354 -12.68443,-13.19542 -19.45258,-18.02575 -2.16116,-1.5424 -5.80519,-3.82161 -6.11059,-3.82195 -0.0779,-1e-4 -0.21155,0.56036 -0.29715,1.24543 -0.3204,2.56445 -1.88777,6.23394 -3.8183,8.93933 -4.94758,6.93342 -13.30872,11.72704 -22.2726,12.76937 -2.59175,0.30137 -3.08373,0.46558 -3.55645,1.18704 -0.36338,0.55458 -0.96122,2.67385 -1.55419,5.50935 -0.19231,0.91962 -0.50277,2.37428 -0.68991,3.23259 -0.69273,3.17717 -2.32259,11.50386 -2.66191,13.59919 -0.26953,1.66444 -0.27622,1.67203 -1.47328,1.67203 -1.02135,0 -1.09967,-0.0393 -1.09967,-0.55169 0,-1.58851 4.20187,-22.01154 4.91411,-23.88488 0.39083,-1.02795 1.28921,-2.06447 2.17708,-2.51183 0.49758,-0.25071 1.78084,-0.51409 3.2449,-0.66599 5.57699,-0.57864 12.51269,-3.90612 17.0618,-8.1856 2.38269,-2.24145 4.24523,-4.74814 5.59481,-7.52969 1.0027,-2.0666 2.0085,-5.05377 2.0085,-5.96511 0,-0.24071 -1.02697,-0.94996 -2.95393,-2.04008 -4.64231,-2.62627 -4.35691,-2.51409 -4.95836,-1.94907 -0.28042,0.26344 -0.5687,0.77325 -0.64063,1.13291 -0.19723,0.98614 -1.78581,4.04913 -2.85203,5.49909 -2.75741,3.74981 -7.33966,6.79502 -12.22643,8.12526 -1.62423,0.44214 -2.40459,0.51417 -5.46197,0.5042 -3.26328,-0.0106 -3.72134,-0.063 -5.3796,-0.61437 -2.19549,-0.73003 -4.77655,-2.36953 -6.06529,-3.85268 -0.52319,-0.60211 -1.37242,-1.9591 -1.88718,-3.01554 -0.86282,-1.77073 -1.02175,-1.96182 -2.03451,-2.4461 -0.60422,-0.28892 -1.64337,-0.85337 -2.30922,-1.25432 -0.66586,-0.40096 -1.29821,-0.6749 -1.40524,-0.60875 -0.10703,0.0661 -0.51835,0.79269 -0.91404,1.61455 -0.67257,1.39692 -0.71894,1.64681 -0.71162,3.83513 0.0116,3.48706 1.09847,6.87954 2.91359,9.09465 0.99343,1.21235 1.23822,2.81319 0.66412,4.34311 -0.49572,1.32101 -2.19852,7.46191 -3.13567,11.3083 -1.22765,5.03872 -2.521837,11.81222 -3.609994,18.89395 -0.110263,0.71757 -0.123323,0.72455 -1.355252,0.72455 h -1.243928 l 0.158273,-0.72455 c 0.08705,-0.39849 0.250597,-1.37663 0.363447,-2.17364 0.360682,-2.54734 0.609224,-4.07714 0.977945,-6.01931 0.197867,-1.04223 0.45427,-2.39658 0.569781,-3.00965 0.33554,-1.78089 1.134551,-5.4817 1.56431,-7.24547 0.104566,-0.42916 0.294361,-1.26778 0.421779,-1.86363 0.127409,-0.59583 0.435349,-1.7997 0.684289,-2.67525 0.24895,-0.87554 0.5477,-1.94303 0.6639,-2.37218 0.44895,-1.65812 1.39245,-4.8171 1.58452,-5.30526 0.38897,-0.98857 0.22498,-1.83578 -0.54091,-2.79445 -0.40832,-0.51109 -0.90037,-1.28039 -1.09344,-1.70955 -1.533199,-3.4079 -1.778185,-4.48296 -1.778185,-7.80281 0,-2.7786 0.240208,-4.20163 1.080775,-6.40262 0.65226,-1.70792 1.75471,-1.59201 -15.932982,-1.67519 l -15.75467,-0.0741 -3.232594,-0.59957 c -4.996895,-0.92681 -11.730465,-2.64243 -17.336057,-4.41699 -2.420785,-0.76635 -2.607854,-0.78695 -2.392769,-0.26352 0.71831,1.74806 1.447951,6.16044 1.447951,8.75624 0,1.49334 0.09799,1.9864 0.587333,2.95538 1.221143,2.41804 3.062878,4.65586 5.005313,6.08174 3.026093,2.22136 12.698435,5.44255 25.004848,8.3274 l 3.956463,0.92746 0.725225,-0.8244 c 0.398873,-0.45342 0.847436,-0.98395 0.996807,-1.17895 0.247777,-0.32348 0.272202,-0.32302 0.278672,0.005 0.0039,0.19785 -0.09425,0.89408 -0.218109,1.54718 -0.335164,1.76731 -1.311559,8.77511 -1.768864,12.69552 -0.451493,3.87057 -1.288115,14.30241 -1.327544,16.5531 l -0.02245,1.28191 H 79.155229 77.708257 Z M 32.956719,242.76979 c 3.93797,-1.99167 7.507841,-5.59833 10.009644,-10.1128 2.356099,-4.25155 2.875243,-10.95309 1.394276,-17.99858 -0.208598,-0.99238 -0.454701,-0.73879 -0.640214,0.65967 -0.20245,1.52613 -1.098153,3.75864 -2.126526,5.30029 -0.730367,1.0949 -0.7947,1.30428 -0.600992,1.95606 0.445851,1.50016 -1.064379,6.83531 -2.912203,10.28786 -2.499703,4.67057 -5.938757,7.86932 -9.635549,8.96231 l -0.992886,0.29355 1.884636,0.61038 c 1.03655,0.33571 2.013375,0.61467 2.170721,0.61992 0.157346,0.005 0.809438,-0.25515 1.449093,-0.57866 z m -5.769455,-2.75038 c 4.236076,-1.08342 7.637638,-4.12755 9.634899,-8.62251 0.742556,-1.67116 1.644849,-5.20614 1.644849,-6.44415 v -0.95893 l -1.003219,0.5607 c -1.372537,0.76713 -1.301494,0.37997 0.354239,-1.93046 4.145803,-5.78513 4.793783,-10.23173 2.387721,-16.38517 -1.656578,-4.23665 -2.400623,-5.37553 -5.964943,-9.13031 -2.09936,-2.21153 -2.846276,-3.17273 -3.511701,-4.51911 -0.844888,-1.70952 -0.845189,-1.71114 -0.836198,-4.50842 0.0082,-2.52996 0.07953,-3.02274 0.744583,-5.13912 1.993195,-6.34288 2.093423,-6.75581 2.119304,-8.73111 0.02305,-1.75882 -0.02333,-1.98341 -0.518684,-2.5118 -0.795076,-0.8481 -1.874272,-1.08348 -4.498122,-0.98107 -2.809585,0.10967 -4.250455,0.68072 -6.077474,2.40864 -1.445324,1.36693 -2.364861,3.02553 -3.158442,5.69699 -0.509297,1.71446 -0.594758,2.41477 -0.597805,4.89863 -0.0031,2.51868 0.08473,3.2339 0.670689,5.46197 0.370832,1.41008 1.024008,3.46668 1.451502,4.57022 l 0.777261,2.00644 2.198255,1.18721 c 5.14422,2.77826 8.516078,5.35461 9.479484,7.24304 1.071021,2.09938 1.60724,5.80415 1.106175,7.64262 -0.419676,1.53984 -1.944051,3.28658 -3.253853,3.72853 -0.119322,0.0403 0.09472,0.46702 0.475641,0.94837 2.388747,3.01847 3.086325,5.85785 2.014389,8.19926 -0.313427,0.68462 -1.023062,1.72926 -1.576966,2.32143 l -1.0071,1.07667 0.657102,1.30271 c 1.199379,2.37779 0.832428,4.61018 -1.051777,6.39861 -1.074253,1.01965 -1.911022,1.44197 -3.686305,1.86051 -1.604562,0.37829 -6.673398,0.43867 -9.318694,0.111 -0.919617,-0.11391 -2.409725,-0.27558 -3.311349,-0.35928 -1.533145,-0.1423 -1.634218,-0.12464 -1.560562,0.27264 0.143529,0.77418 3.590714,2.05173 6.802432,2.52102 2.547912,0.37229 6.558366,0.27899 8.414669,-0.19577 z m -2.706662,-4.39475 c 1.612121,-0.4427 3.106061,-1.70286 3.622795,-3.0559 0.337732,-0.88435 0.33997,-1.03208 0.02488,-1.64139 -0.190438,-0.36827 -0.666642,-0.93916 -1.058225,-1.26866 -2.458641,-2.06882 -10.757407,-4.85144 -16.024355,-5.37307 -1.173824,-0.11625 -1.6846206,-0.0547 -2.688966,0.32428 -2.4155156,0.91135 -3.4046115,2.63789 -2.9131433,5.08508 0.4452029,2.21683 1.7973096,3.58759 4.5671463,4.63015 2.360012,0.8883 3.752052,1.15284 9.283651,1.76418 1.272977,0.14068 3.809282,-0.0866 5.186215,-0.46467 z m 103.423458,-8.06063 c 5.9068,-1.56627 10.97045,-5.38027 12.09875,-9.11292 l 0.1497,-0.49523 -1.2314,0.56375 c -2.5582,1.17119 -6.04007,1.47964 -6.04007,0.53508 0,-0.17644 0.92829,-0.82478 2.06285,-1.44075 1.13456,-0.61597 3.04018,-1.82219 4.2347,-2.6805 2.53665,-1.82268 7.62148,-6.79276 9.60762,-9.39081 l 1.38442,-1.81093 1.02396,0.21838 c 1.31182,0.27979 3.36311,-0.10086 4.83394,-0.89702 1.52096,-0.82329 3.3484,-2.87552 3.95554,-4.44209 0.59529,-1.53601 0.70921,-4.21186 0.23047,-5.41393 -0.17091,-0.42916 -0.706,-1.40211 -1.1891,-2.16213 -0.98426,-1.54847 -0.98158,-2.20974 0.01,-2.42619 1.13655,-0.24815 1.1929,-0.2928 1.03079,-0.81682 -0.36594,-1.18292 -3.03979,-6.43499 -4.05814,-7.97111 -0.60963,-0.91962 -1.72368,-2.26001 -2.47564,-2.97864 -1.41051,-1.34801 -1.68922,-2.05002 -1.03081,-2.59645 0.27718,-0.23003 0.49678,-0.16804 1.2474,0.35215 2.27312,1.57527 4.69835,5.32203 6.45523,9.97273 0.70394,1.86343 0.75582,1.9359 1.02216,1.42758 0.24321,-0.46417 0.17759,-0.83893 -0.49262,-2.81328 -1.62275,-4.78054 -3.76887,-8.36157 -7.38803,-12.32778 -0.98254,-1.07674 -1.21731,-1.87458 -0.61918,-2.10411 0.58433,-0.22422 1.64127,0.38398 2.52679,1.45399 2.50034,3.02128 4.70221,7.0432 5.96294,10.89185 0.43005,1.31286 0.83979,2.44019 0.91051,2.50519 0.0707,0.065 0.0746,-0.98537 0.008,-2.33414 -0.24259,-4.95179 -1.89421,-8.1533 -6.57565,-12.74627 -2.08966,-2.05018 -2.73442,-2.81366 -2.63577,-3.12113 0.0718,-0.22387 0.80598,-0.75582 1.63147,-1.18211 2.80399,-1.448 3.9272,-3.00283 3.9495,-5.46718 0.0121,-1.34468 -0.081,-1.73018 -0.67345,-2.78672 -0.44843,-0.79971 -1.05811,-1.47814 -1.75295,-1.9507 -1.03375,-0.70302 -1.13449,-0.72455 -3.39044,-0.72455 -1.30687,0 -3.07755,0.16003 -4.04342,0.36542 -2.3479,0.49929 -4.28325,0.47399 -5.21146,-0.0681 -0.40272,-0.23521 -1.13588,-1.02069 -1.62922,-1.74552 -2.18729,-3.21357 -4.82373,-5.01403 -7.60335,-5.19242 -1.37743,-0.0884 -1.88384,-0.006 -3.59613,0.5871 -3.73821,1.29425 -5.24878,1.18484 -7.80518,-0.56535 -2.8004,-1.91722 -4.01501,-2.22719 -5.40554,-1.37951 -0.42547,0.25938 -2.38175,2.05155 -4.34729,3.98261 -3.86684,3.79904 -5.09373,4.62841 -7.61809,5.14981 -1.30551,0.26965 -1.3652,0.31445 -2.47298,1.85625 -5.176671,7.20485 -8.261828,14.23727 -9.691086,22.09018 -0.669638,3.67925 -0.722772,12.162 -0.09846,15.71709 1.195875,6.8097 3.571607,12.84538 6.895426,17.51815 5.5266,7.76953 15.27719,13.47017 23.03989,13.47017 1.40382,0 1.78688,0.23658 1.02975,0.636 -0.63978,0.33752 -2.93762,0.7571 -4.96036,0.90574 l -1.89497,0.13927 0.94403,0.49988 c 0.51921,0.27494 1.32179,0.59529 1.7835,0.71191 1.36321,0.34429 5.96312,0.10799 7.90112,-0.40589 z m -16.51655,-18.32961 c -1.29098,-0.25967 -4.01033,-2.15642 -3.73359,-2.60418 0.0808,-0.13075 1.4282,-0.17377 3.42822,-0.10948 3.54822,0.11405 4.07537,0.28392 4.07537,1.31325 0,0.662 -0.73877,1.41362 -1.39335,1.41759 -0.27589,0.002 -0.70226,0.043 -0.94749,0.0918 -0.24523,0.0489 -0.88835,-2.1e-4 -1.42916,-0.109 z m 0.36347,-4.79396 c -2.79065,-0.67608 -6.91745,-3.03967 -9.67038,-5.53861 -0.75498,-0.68533 -1.57046,-1.24604 -1.81219,-1.24604 -0.427027,0 -0.826789,0.67373 -0.982686,1.65618 -0.128261,0.80826 -0.510859,0.23805 -1.701805,-2.5363 -0.916022,-2.13392 -1.159837,-2.93229 -1.055287,-3.45553 0.148963,-0.74549 3.113131,-3.91304 3.661798,-3.91304 0.24804,0 0.28668,0.24178 0.18111,1.13314 -0.11617,0.98084 -0.0666,1.20066 0.36817,1.63551 0.61917,0.61917 6.57941,2.61514 9.40641,3.15003 3.39895,0.64309 8.79638,0.0995 14.87952,-1.49864 3.02979,-0.79596 3.10572,-0.88686 2.63687,-3.1568 -0.15313,-0.74141 -0.18867,-1.40719 -0.0809,-1.51499 0.10781,-0.1078 1.69278,1.31945 3.60668,3.24778 4.00782,4.03803 3.83512,3.40246 2.1798,8.02216 -1.11092,3.10038 -1.335,3.49428 -1.7511,3.07818 -0.19412,-0.19412 -0.20158,-0.6472 -0.0292,-1.77234 0.45134,-2.94553 -0.18467,-3.0882 -4.44172,-0.99639 -7.08088,3.47937 -11.72008,4.59606 -15.39515,3.7057 z m 9.81073,-3.52792 c 3.3433,-1.09126 7.53667,-2.69131 8.21061,-3.1329 1.11887,-0.7331 0.41554,-2.32036 -1.20882,-2.72805 -0.31599,-0.0793 -1.50794,0.0777 -2.69475,0.35497 -7.63404,1.78349 -11.81959,2.15023 -15.61586,1.36825 -1.28747,-0.26521 -3.14343,-0.7186 -4.12434,-1.00755 -6.513943,-1.91884 -6.767844,-1.94174 -6.469539,-0.58351 0.184032,0.83786 0.663509,1.35737 1.252769,1.35737 0.23997,0 1.23664,0.54811 2.21482,1.21802 0.97818,0.66991 2.8062,1.72399 4.06226,2.34238 2.93175,1.44339 4.78904,1.79996 8.86041,1.70105 2.75438,-0.0669 3.22193,-0.1424 5.51244,-0.89003 z m 31.20014,-11.67263 c -0.0541,-0.092 -0.16287,-0.46816 -0.24165,-0.83601 -0.0788,-0.36785 -0.49186,-1.10931 -0.91796,-1.64768 -0.88784,-1.12177 -0.97312,-1.68599 -0.30856,-2.04165 0.4082,-0.21846 0.58709,-0.12328 1.4386,0.7654 1.11373,1.16236 1.62389,2.56439 1.23983,3.40731 -0.22394,0.4915 -0.99611,0.71648 -1.21026,0.35263 z m -40.91209,-1.56056 c -0.69233,-0.66369 -2.68107,-4.82264 -2.87368,-6.0096 -0.12698,-0.78245 -0.30131,-0.57006 4.8115,-5.86182 0.77005,-0.797 2.3419,-2.86623 3.493,-4.59829 1.1511,-1.73207 2.25691,-3.21214 2.45735,-3.28905 0.48628,-0.18661 0.77008,0.0151 0.77008,0.54727 0,0.84609 -2.48006,5.3666 -5.01516,9.14133 -1.78292,2.65472 -2.56471,4.01315 -2.56471,4.45637 0,0.35067 0.51113,1.6475 1.13586,2.88185 0.62473,1.23435 1.07875,2.39312 1.00894,2.57506 -0.0698,0.18192 -0.38685,0.42959 -0.70451,0.55037 -1.01595,0.38626 -1.83948,0.2576 -2.51867,-0.39349 z m 43.44626,-2.60337 c -0.74253,-1.22928 -1.61713,-2.30902 -2.47412,-3.0544 -1.33279,-1.15924 -1.62373,-1.81344 -1.05805,-2.37913 0.43396,-0.43395 0.69297,-0.32562 1.99408,0.83403 1.91827,1.70973 3.91842,6.06552 2.94349,6.41015 -0.14128,0.05 -0.77372,-0.76485 -1.4054,-1.81065 z M 136.779,177.91306 c -2.29849,-2.39866 -6.04709,-4.87966 -7.83358,-5.18464 -0.76409,-0.13044 -0.9725,-0.27506 -1.14586,-0.79513 -0.25327,-0.7598 -0.11942,-0.8757 1.62595,-1.40788 1.67424,-0.51049 4.28945,-0.51074 5.61158,-4.4e-4 1.39804,0.53949 2.73376,2.01776 3.17953,3.51883 0.19213,0.64698 0.34933,1.30366 0.34933,1.4593 0,0.62589 -0.48899,2.50802 -0.74121,2.85297 -0.24044,0.3288 -0.35121,0.2819 -1.04574,-0.44292 z m -32.99393,-3.94436 c -0.59748,-0.97953 -0.75176,-1.94768 -0.58867,-3.69407 0.31205,-3.34179 2.49959,-5.72998 3.86562,-4.22021 1.61232,1.78197 1.04756,6.59484 -0.95909,8.17326 -0.90507,0.71193 -1.78564,0.61354 -2.31786,-0.25898 z m 35.7982,-9.3099 c -1.24066,-1.81577 -3.23171,-3.72606 -4.80402,-4.60914 -0.61461,-0.3452 -1.11757,-0.73882 -1.1177,-0.87471 -4.4e-4,-0.44352 2.21238,-1.83348 2.71121,-1.70303 0.59527,0.15567 2.8796,3.23961 3.74904,5.06136 0.71775,1.50389 1.09366,3.31721 0.73379,3.53962 -0.11838,0.0731 -0.69092,-0.56318 -1.27232,-1.4141 z m -35.3497,-5.77525 c 0,-0.95102 4.37365,-4.00738 5.3095,-3.71035 0.40266,0.1278 1.1557,1.4275 1.1557,1.99468 0,0.2029 -0.47462,0.3343 -1.52593,0.42243 -1.30671,0.10956 -2.14325,0.36577 -4.66059,1.42747 -0.15327,0.0646 -0.27868,0.004 -0.27868,-0.13423 z m -75.103582,67.08171 c 0.695667,-0.19324 0.887345,-0.40392 1.39336,-1.53146 0.771566,-1.71928 0.758633,-2.89397 -0.05069,-4.60471 -1.310186,-2.76946 -5.91805,-5.72334 -11.401205,-7.30878 -3.932436,-1.13706 -11.5510291,-1.40591 -13.1622019,-0.46449 -0.9504965,0.55539 -1.5309533,1.7136 -1.7956994,3.58305 -0.3600743,2.54258 0.077005,4.54657 1.2827069,5.88115 l 0.7619306,0.84336 3.4035331,-0.12422 c 5.0587947,-0.18464 9.3306967,0.59078 14.5661477,2.64401 1.326594,0.52025 2.763116,1.016 3.192271,1.10164 0.429155,0.0856 0.830442,0.1667 0.89175,0.18011 0.06131,0.0134 0.474453,-0.0764 0.918102,-0.19966 z m 0.175517,-12.8044 c 1.397909,-0.72289 2.163906,-4.58736 1.370619,-6.9148 -0.731844,-2.14718 -5.218155,-5.66071 -9.263831,-7.25513 -1.897189,-0.7477 -5.384407,-1.17336 -9.697782,-1.18375 -3.6074306,-0.009 -4.7226871,0.35736 -6.332575,2.07846 -1.9350745,2.06875 -2.1549067,5.06089 -0.6137807,8.35421 0.677075,1.44687 0.7062643,1.47465 1.4222311,1.353 1.7699841,-0.30074 7.8364996,-0.51865 9.7868576,-0.35154 3.333417,0.2856 4.517436,0.6454 8.221767,2.49845 1.900542,0.95073 3.686239,1.73219 3.968212,1.7366 0.281974,0.004 0.794202,-0.13757 1.138282,-0.3155 z M 164.9364,178.76185 c 1.29926,-3.11096 2.50143,-6.86845 3.10753,-9.71282 0.70981,-3.3311 0.71435,-9.09283 0.009,-11.66903 -1.40581,-5.13595 -3.56842,-9.30706 -6.06672,-11.70113 -1.32932,-1.27385 -1.74765,-1.88338 -2.98361,-4.34728 -2.47798,-4.9399 -3.86071,-6.41449 -7.09825,-7.56981 -0.89891,-0.32077 -2.58744,-1.0372 -3.75228,-1.59208 -1.86431,-0.88806 -2.37151,-1.2669 -4.23582,-3.16383 -2.22872,-2.26773 -3.93399,-3.35888 -5.24935,-3.35888 -1.21722,0 -2.65443,1.28686 -6.37144,5.70499 -1.79423,2.13265 -2.93286,2.91114 -3.90206,2.66789 -0.30154,-0.0757 -1.41375,-0.54881 -2.47159,-1.05139 -2.61607,-1.24289 -4.15977,-1.37963 -5.9085,-0.52335 -1.26412,0.61897 -3.91172,2.6275 -6.87658,5.2167 -2.22116,1.93974 -3.65509,2.58903 -5.67075,2.56773 -1.83422,-0.0194 -2.8269,-0.39508 -4.11234,-1.55639 -1.10456,-0.99791 -1.57257,-2.01038 -1.57257,-3.40204 v -1.02241 l -1.01518,0.9939 c -2.439587,2.38845 -3.515434,6.65916 -2.675658,10.62138 0.692793,3.26876 1.799234,5.3003 3.396528,6.23637 0.8813,0.51647 1.16155,0.56776 2.59193,0.47429 2.49817,-0.16324 3.53121,-0.79177 7.27474,-4.42619 3.34215,-3.24473 5.26274,-4.71631 6.6629,-5.10521 1.78669,-0.49624 2.77958,-0.19826 5.19623,1.55946 2.15468,1.56719 2.45526,1.68217 3.54431,1.35588 0.49492,-0.14828 2.59088,-1.06714 4.65768,-2.04192 4.33122,-2.04275 4.91922,-2.14276 6.54316,-1.11288 1.2262,0.77762 2.41868,2.26526 4.74318,5.91722 0.93656,1.47139 1.91161,2.90097 2.16677,3.17687 0.66013,0.71372 1.77748,0.65102 5.0796,-0.28505 1.52627,-0.43266 3.32834,-0.84578 4.00461,-0.91804 1.42666,-0.15245 3.50107,0.30509 4.7654,1.05106 2.60762,1.53853 4.0791,6.38247 2.76761,9.11061 -0.60996,1.2688 -2.58168,3.27079 -4.34174,4.40837 l -1.33742,0.86442 1.33123,1.43954 c 1.68637,1.82354 3.47837,4.20819 4.34864,5.78682 0.77591,1.40747 1.70811,4.1067 1.92481,5.57343 0.21482,1.45395 0.37267,2.22938 0.45382,2.22938 0.0391,0 0.5215,-1.07846 1.07199,-2.39658 z m -63.48954,-24.28697 c 0.16443,-0.23286 0.10594,-0.3788 -0.22295,-0.55617 -0.24523,-0.13226 -0.97043,-0.78586 -1.611545,-1.45245 -0.94296,-0.98043 -1.283159,-1.19843 -1.780604,-1.14099 -1.50831,0.17415 -2.378571,4.25871 -1.529586,7.17911 0.793618,2.72996 0.553579,2.78453 2.862728,-0.6507 1.132457,-1.6847 2.159337,-3.20516 2.281957,-3.3788 z m 42.46959,114.42508 c 0,-0.17532 0.61123,-1.70523 1.35827,-3.39979 0.74706,-1.69456 1.46152,-3.45723 1.58769,-3.91704 0.12617,-0.45981 0.32227,-0.83601 0.43577,-0.83601 0.1135,0 2.18298,1.19007 4.59884,2.64458 2.41585,1.45453 5.62141,3.32416 7.12345,4.15476 1.50204,0.83059 2.73098,1.54664 2.73098,1.59122 0,0.0446 -4.01288,0.0811 -8.9175,0.0811 -7.5837,0 -8.9175,-0.0477 -8.9175,-0.31878 z"
       id="path826"
       inkscape:connector-curvature="0"
       sodipodi:nodetypes="csscscccccccccccccsccccccsscscscccsscscsssccssccssccccccsccscssscccccccccccsscssccccccsccccsccssssccsssscccsscccccccccccccsccccsccccsccscccsccscsscscccsccccccsssccsccscccsscccssccsscccsccsccsccscccccccccscccscscccccccccsccccccccccsccccscccsccccccccccscccscsccscsscscccccccccsscccccssscscccscccscccccccccccscccccccsccccccscscsscccccscccccscccsccccccccscccscsscsccsccsscsccscccccsscccsccccsccccccccscssscccsccscsccsssccccccccccccsccccsssccccscssscc" />
  </g>
</svg>
